<?xml version="1.0" encoding="UTF-8"?>
<svg xmlns="http://www.w3.org/2000/svg" xmlns:xlink="http://www.w3.org/1999/xlink" viewBox="0 0 96 96" width="96px" height="96px">
<g id="surface17981327">
<path style=" stroke:none;fill-rule:evenodd;fill:rgb(0%,0%,0%);fill-opacity:1;" d="M 48 12 C 28.113281 12 12 28.113281 12 48 C 12 63.902344 22.3125 77.402344 36.621094 82.160156 C 38.425781 82.488281 39.082031 81.386719 39.082031 80.425781 C 39.082031 79.570312 39.046875 77.308594 39.035156 74.308594 C 29.015625 76.476562 26.90625 69.480469 26.90625 69.480469 C 25.265625 65.320312 22.910156 64.207031 22.910156 64.207031 C 19.640625 61.980469 23.15625 62.027344 23.15625 62.027344 C 26.765625 62.285156 28.664062 65.730469 28.664062 65.730469 C 31.875 71.238281 37.089844 69.644531 39.140625 68.730469 C 39.46875 66.398438 40.40625 64.816406 41.425781 63.914062 C 33.433594 63.011719 25.03125 59.917969 25.03125 46.125 C 25.03125 42.1875 26.4375 38.976562 28.734375 36.457031 C 28.371094 35.554688 27.128906 31.886719 29.085938 26.929688 C 29.085938 26.929688 32.109375 25.96875 38.988281 30.621094 C 41.859375 29.824219 44.941406 29.425781 48 29.414062 C 51.058594 29.425781 54.140625 29.824219 57.011719 30.621094 C 63.890625 25.96875 66.902344 26.929688 66.902344 26.929688 C 68.871094 31.886719 67.640625 35.554688 67.265625 36.457031 C 69.574219 38.976562 70.957031 42.1875 70.957031 46.125 C 70.957031 59.953125 62.542969 62.988281 54.527344 63.890625 C 55.816406 64.992188 56.964844 67.195312 56.964844 70.546875 C 56.964844 75.363281 56.929688 79.242188 56.929688 80.425781 C 56.929688 81.386719 57.574219 82.511719 59.402344 82.160156 C 73.699219 77.390625 84 63.902344 84 48 C 84 28.113281 67.886719 12 48 12 Z M 48 12 "/>
</g>
</svg>
